Coordinates
version=1
nRows=10
nColumns=28
inDegrees=yes

Units are S.I. units (second, meters, Newtons, ...)
Angles are in degrees.

endheader
time	pelvis_tilt	pelvis_list	pelvis_rotation	pelvis_tx	pelvis_ty	pelvis_tz	hip_flexion_r	hip_adduction_r	hip_rotation_r	knee_angle_r	ankle_angle_r	subtalar_angle_r	mtp_angle_r	hip_flexion_l	hip_adduction_l	hip_rotation_l	knee_angle_l	socket_flexion	socket_adduction	socket_rotation	socket_tx	socket_ty	socket_tz	foot_flex	lumbar_extension	lumbar_bending	lumbar_rotation
      0.27083333	     -1.47424732	      2.73816757	      1.90531393	     -0.41661905	      0.98226478	      0.24206658	     16.42033975	     -4.87338454	      2.74034393	    -62.94476659	    -11.41001588	    -14.63987348	     10.90278133	     12.61306496	      5.04768424	     -6.72903211	    -27.24352648	     -4.95134224	     -4.85799224	     11.60076099	      0.00000000	     -0.00632924	      0.00000000	      4.21371936	     -7.17468169	     -5.57129861	     -5.14429632
      0.27500000	     -1.29197993	      2.52368145	      1.87659699	     -0.41083137	      0.98354875	      0.24163349	     16.87915471	     -4.60564462	      2.66861584	    -62.78093511	    -10.53256468	    -15.19665982	     10.60440384	     11.80802128	      4.79071606	     -6.98143731	    -26.77526426	     -4.84758297	     -4.87666487	     11.92815397	      0.00000000	     -0.00638053	      0.00000000	      4.29811353	     -7.34330059	     -5.27336246	     -5.37707353
      0.27916667	     -0.81396760	      2.32357367	      1.72352146	     -0.40478756	      0.98537937	      0.24146056	     16.94526635	     -4.27169550	      2.72469091	    -62.45853099	     -9.78843127	    -15.82208542	      9.40957162	     10.50149394	      4.50561375	     -7.46974161	    -25.85689158	     -4.48946551	     -4.88057561	     12.45200666	      0.00000000	     -0.00660807	      0.00000000	      4.37266073	     -7.80952897	     -4.98921704	     -5.55109650
      0.28333333	     -0.76897643	      2.22041567	      1.75285036	     -0.39924760	      0.98629153	      0.24069197	     17.59894047	     -4.24344729	      2.53320115	    -62.29397959	     -9.30364414	    -16.05696909	      9.38197687	      9.97740647	      4.43861942	     -7.49228301	    -25.75315045	     -4.64904299	     -4.91732689	     12.49520343	      0.00000000	     -0.00627392	      0.00000000	      4.43738667	     -7.84311408	     -4.81482844	     -5.56359308
      0.28750000	     -0.73608291	      2.00059462	      1.83215855	     -0.39366777	      0.98723822	      0.24011498	     18.17844107	     -4.00051732	      2.34640622	    -62.02319449	     -8.11018859	    -16.64986894	      9.31235454	      9.43943098	      4.21223405	     -7.55668085	    -25.47788183	     -4.61975815	     -4.92769580	     12.68659879	      0.00000000	     -0.00620429	      0.00000000	      4.47069875	     -7.84214092	     -4.52849320	     -5.69485762
      0.29166667	     -0.22781251	      1.76616988	      1.71071502	     -0.38767415	      0.98915507	      0.24004116	     18.11802981	     -3.55677467	      2.44450515	    -61.51073643	     -7.17829183	    -17.21277027	      7.08132929	      8.04888758	      3.89740455	     -7.91058175	    -24.34367103	     -4.12759811	     -4.80747056	     13.14676572	      0.00000000	     -0.00640335	      0.00000000	      4.53893634	     -8.38146686	     -4.22862602	     -5.88382088
      0.29583333	     -0.25145231	      1.57087389	      1.78540874	     -0.38220938	      0.98996643	      0.23945409	     18.75223518	     -3.33703200	      2.29334179	    -61.15290243	     -6.31359649	    -17.59046622	      6.99406294	      7.59694559	      3.70732309	     -7.90955286	    -24.13358203	     -4.15202133	     -4.81974080	     13.31069363	      0.00000000	     -0.00627566	      0.00000000	      4.57386946	     -8.34400087	     -3.97458715	     -6.02780467
      0.30000000	     -0.23744836	      1.37279495	      1.84096115	     -0.37662752	      0.99088052	      0.23883581	     19.29095320	     -3.10942434	      2.15522393	    -60.68884506	     -5.58642185	    -17.98487837	      6.79763367	      7.07623279	      3.50984576	     -7.98959778	    -23.86755380	     -4.15876737	     -4.81839930	     13.44731121	      0.00000000	     -0.00605228	      0.00000000	      4.60836573	     -8.34302759	     -3.68370778	     -6.23880223
      0.30416667	     -0.19014962	      1.16583908	      1.89953941	     -0.37108071	      0.99181041	      0.23828344	     19.76972383	     -2.85292816	      2.02784204	    -60.16192927	     -4.89061768	    -18.42344060	      6.52066623	      6.50956749	      3.29672788	     -8.05337929	    -23.56454707	     -4.13785778	     -4.81424767	     13.62591386	      0.00000000	     -0.00590424	      0.00000000	      4.63782325	     -8.38063976	     -3.39399223	     -6.45346618
      0.30833333	      0.19427998	      0.91227733	      1.90313287	     -0.36529542	      0.99337487	      0.23787221	     19.77406219	     -2.47724400	      1.95392567	    -59.44835091	     -4.33747107	    -19.07843821	      4.66876929	      5.38878067	      3.01425465	     -8.22241112	    -22.77005266	     -3.86420128	     -4.74339992	     13.91247245	      0.00000000	     -0.00592334	      0.00000000	      4.65598261	     -8.78417826	     -3.04563348	     -6.73903824
